<svg width="40" height="33" viewBox="0 0 40 33" fill="none" xmlns="http://www.w3.org/2000/svg">
<path d="M5.2875 32.8125V13.7625L1.25625 16.8667L0 15.2167L19.8708 0L39.7417 15.2167L38.4854 16.8542L34.4542 13.7625V32.8125H5.2875ZM11.5375 21.9167C11.1069 21.9167 10.7319 21.7569 10.4125 21.4375C10.0931 21.1181 9.93333 20.7431 9.93333 20.3125C9.93333 19.8819 10.0931 19.5069 10.4125 19.1875C10.7319 18.8681 11.1069 18.7083 11.5375 18.7083C11.9681 18.7083 12.3431 18.8681 12.6625 19.1875C12.9819 19.5069 13.1417 19.8819 13.1417 20.3125C13.1417 20.7431 12.9819 21.1181 12.6625 21.4375C12.3431 21.7569 11.9681 21.9167 11.5375 21.9167ZM19.8708 21.9167C19.4403 21.9167 19.0653 21.7569 18.7458 21.4375C18.4264 21.1181 18.2667 20.7431 18.2667 20.3125C18.2667 19.8819 18.4264 19.5069 18.7458 19.1875C19.0653 18.8681 19.4403 18.7083 19.8708 18.7083C20.3014 18.7083 20.6764 18.8681 20.9958 19.1875C21.3153 19.5069 21.475 19.8819 21.475 20.3125C21.475 20.7431 21.3153 21.1181 20.9958 21.4375C20.6764 21.7569 20.3014 21.9167 19.8708 21.9167ZM28.2042 21.9167C27.7736 21.9167 27.3986 21.7569 27.0792 21.4375C26.7597 21.1181 26.6 20.7431 26.6 20.3125C26.6 19.8819 26.7597 19.5069 27.0792 19.1875C27.3986 18.8681 27.7736 18.7083 28.2042 18.7083C28.6347 18.7083 29.0097 18.8681 29.3292 19.1875C29.6486 19.5069 29.8083 19.8819 29.8083 20.3125C29.8083 20.7431 29.6486 21.1181 29.3292 21.4375C29.0097 21.7569 28.6347 21.9167 28.2042 21.9167Z" fill="#CDA274"/>
</svg>
